<svg width="27" height="27" viewBox="0 0 27 27" fill="none" xmlns="http://www.w3.org/2000/svg">
<path d="M16.4797 2.10665C16.5067 2.00546 16.5533 1.91058 16.617 1.82743C16.6807 1.74429 16.7601 1.67451 16.8508 1.62208C16.9414 1.56966 17.0416 1.53562 17.1454 1.52191C17.2492 1.50821 17.3547 1.5151 17.4559 1.5422C19.3806 2.04426 21.1366 3.05036 22.5431 4.45687C23.9497 5.86339 24.9558 7.61945 25.4578 9.54415C25.4849 9.64531 25.4918 9.75082 25.4781 9.85464C25.4644 9.95847 25.4304 10.0586 25.3779 10.1492C25.3255 10.2399 25.2557 10.3193 25.1726 10.383C25.0894 10.4467 24.9946 10.4933 24.8934 10.5203C24.8262 10.5382 24.757 10.5471 24.6875 10.5469C24.5119 10.547 24.3413 10.4891 24.202 10.3822C24.0627 10.2754 23.9626 10.1255 23.9172 9.95587C23.4862 8.3026 22.6221 6.79418 21.414 5.58607C20.2058 4.37796 18.6974 3.51385 17.0442 3.08282C16.943 3.05584 16.8481 3.00918 16.7649 2.94551C16.6818 2.88184 16.612 2.8024 16.5596 2.71174C16.5072 2.62108 16.4731 2.52097 16.4594 2.41714C16.4457 2.31332 16.4526 2.20781 16.4797 2.10665ZM15.9817 7.33282C17.9141 7.84814 19.1519 9.08595 19.6672 11.0184C19.7126 11.188 19.8127 11.3379 19.952 11.4447C20.0913 11.5516 20.2619 11.6095 20.4375 11.6094C20.507 11.6096 20.5762 11.6007 20.6434 11.5828C20.7446 11.5558 20.8394 11.5092 20.9226 11.4455C21.0057 11.3818 21.0755 11.3024 21.1279 11.2117C21.1804 11.1211 21.2144 11.021 21.2281 10.9171C21.2418 10.8133 21.2349 10.7078 21.2078 10.6067C20.5438 8.12173 18.8783 6.45626 16.3934 5.7922C16.2922 5.76516 16.1867 5.75832 16.0829 5.77206C15.9791 5.78579 15.879 5.81984 15.7884 5.87225C15.6053 5.97811 15.4718 6.15235 15.4172 6.35665C15.3626 6.56095 15.3914 6.77857 15.4973 6.96164C15.6031 7.14471 15.7774 7.27823 15.9817 7.33282ZM26.5323 20.2156C26.3047 21.9518 25.4527 23.5457 24.1355 24.6994C22.8183 25.8531 21.126 26.4876 19.375 26.4844C8.97579 26.4844 0.515638 18.0242 0.515638 7.62501C0.512284 5.8746 1.14626 4.18282 2.29914 2.8657C3.45202 1.54857 5.04496 0.696183 6.7804 0.467745C7.1799 0.419196 7.58437 0.50157 7.93305 0.702497C8.28174 0.903424 8.55583 1.21206 8.71415 1.58204L11.5165 7.83751C11.6402 8.1207 11.6914 8.43027 11.6655 8.73822C11.6395 9.04617 11.5372 9.34279 11.3677 9.60126C11.3507 9.62757 11.332 9.65285 11.312 9.67696L8.51361 13.0052C8.49662 13.0397 8.48778 13.0777 8.48778 13.1161C8.48778 13.1546 8.49662 13.1925 8.51361 13.227C9.53095 15.3095 11.7144 17.477 13.8261 18.4931C13.8614 18.5091 13.8999 18.5168 13.9386 18.5154C13.9773 18.514 14.0152 18.5036 14.0492 18.4851L17.3284 15.696C17.3518 15.6757 17.3766 15.657 17.4027 15.6402C17.6601 15.4687 17.9561 15.364 18.2641 15.3357C18.5721 15.3074 18.8822 15.3564 19.1665 15.4782L25.4406 18.2899C25.8056 18.4516 26.1089 18.7267 26.3055 19.0742C26.5021 19.4218 26.5816 19.8234 26.5323 20.2196V20.2156ZM24.9531 20.0191C24.9576 19.9635 24.9445 19.908 24.9156 19.8603C24.8868 19.8127 24.8437 19.7753 24.7924 19.7534L18.517 16.9418C18.4828 16.9286 18.446 16.9229 18.4093 16.9252C18.3727 16.9275 18.3369 16.9377 18.3045 16.9551L15.0267 19.7442C15.0028 19.7641 14.9776 19.7827 14.9524 19.7999C14.685 19.9782 14.376 20.0842 14.0555 20.1075C13.7349 20.1307 13.4139 20.0705 13.1235 19.9327C10.6851 18.7547 8.25462 16.3468 7.07658 13.9309C6.93802 13.6423 6.87634 13.3228 6.89751 13.0033C6.91869 12.6838 7.022 12.3753 7.19743 12.1074C7.21454 12.0808 7.23363 12.0555 7.25454 12.0317L10.0516 8.70345C10.0676 8.66866 10.0758 8.63083 10.0758 8.59255C10.0758 8.55427 10.0676 8.51644 10.0516 8.48165L7.25454 2.22087C7.23609 2.17062 7.20288 2.12712 7.15927 2.09608C7.11566 2.06503 7.06369 2.04788 7.01017 2.04689H6.97962C5.62884 2.22657 4.38964 2.89176 3.49342 3.91825C2.5972 4.94474 2.10523 6.26234 2.10939 7.62501C2.10939 17.145 9.85501 24.8906 19.375 24.8906C20.7379 24.8947 22.0557 24.4026 23.0822 23.5061C24.1087 22.6096 24.7738 21.3701 24.9531 20.0191Z" fill="#333333"/>
</svg>
