<svg width="34" height="34" viewBox="0 0 34 34" fill="none" xmlns="http://www.w3.org/2000/svg">
<path d="M20.4797 5.10659C20.5067 5.0054 20.5533 4.91052 20.617 4.82737C20.6807 4.74422 20.7601 4.67445 20.8508 4.62202C20.9414 4.5696 21.0416 4.53556 21.1454 4.52185C21.2492 4.50815 21.3547 4.51504 21.4559 4.54214C23.3806 5.04419 25.1366 6.0503 26.5431 7.45681C27.9497 8.86333 28.9558 10.6194 29.4578 12.5441C29.4849 12.6452 29.4918 12.7508 29.4781 12.8546C29.4644 12.9584 29.4304 13.0585 29.3779 13.1492C29.3255 13.2398 29.2557 13.3193 29.1726 13.3829C29.0894 13.4466 28.9946 13.4933 28.8934 13.5203C28.8262 13.5381 28.757 13.5471 28.6875 13.5468C28.5119 13.5469 28.3413 13.4891 28.202 13.3822C28.0627 13.2753 27.9626 13.1254 27.9172 12.9558C27.4862 11.3025 26.6221 9.79412 25.414 8.58601C24.2058 7.37789 22.6974 6.51379 21.0442 6.08276C20.943 6.05578 20.8481 6.00912 20.7649 5.94545C20.6818 5.88178 20.612 5.80234 20.5596 5.71168C20.5072 5.62101 20.4731 5.52091 20.4594 5.41708C20.4457 5.31326 20.4526 5.20775 20.4797 5.10659ZM19.9817 10.3328C21.9141 10.8481 23.1519 12.0859 23.6672 14.0183C23.7126 14.1879 23.8127 14.3378 23.952 14.4447C24.0913 14.5516 24.2619 14.6094 24.4375 14.6093C24.507 14.6096 24.5762 14.6006 24.6434 14.5828C24.7446 14.5558 24.8394 14.5091 24.9226 14.4454C25.0057 14.3818 25.0755 14.3023 25.1279 14.2117C25.1804 14.121 25.2144 14.0209 25.2281 13.9171C25.2418 13.8133 25.2349 13.7077 25.2078 13.6066C24.5438 11.1217 22.8783 9.4562 20.3934 8.79214C20.2922 8.7651 20.1867 8.75826 20.0829 8.77199C19.9791 8.78573 19.879 8.81978 19.7884 8.87219C19.6053 8.97805 19.4718 9.15229 19.4172 9.35659C19.3626 9.56089 19.3914 9.77851 19.4973 9.96158C19.6031 10.1446 19.7774 10.2782 19.9817 10.3328ZM30.5323 23.2156C30.3047 24.9517 29.4527 26.5456 28.1355 27.6993C26.8183 28.853 25.126 29.4876 23.375 29.4843C12.9758 29.4843 4.51564 21.0242 4.51564 10.6249C4.51228 8.87454 5.14626 7.18276 6.29914 5.86564C7.45202 4.54851 9.04496 3.69612 10.7804 3.46768C11.1799 3.41913 11.5844 3.50151 11.9331 3.70244C12.2817 3.90336 12.5558 4.212 12.7142 4.58198L15.5165 10.8374C15.6402 11.1206 15.6914 11.4302 15.6655 11.7382C15.6395 12.0461 15.5372 12.3427 15.3677 12.6012C15.3507 12.6275 15.332 12.6528 15.312 12.6769L12.5136 16.0052C12.4966 16.0397 12.4878 16.0776 12.4878 16.1161C12.4878 16.1545 12.4966 16.1925 12.5136 16.227C13.531 18.3095 15.7144 20.477 17.8261 21.493C17.8614 21.5091 17.8999 21.5167 17.9386 21.5153C17.9773 21.514 18.0152 21.5036 18.0492 21.485L21.3284 18.696C21.3518 18.6756 21.3766 18.6569 21.4027 18.6402C21.6601 18.4686 21.9561 18.364 22.2641 18.3357C22.5721 18.3074 22.8822 18.3563 23.1665 18.4782L29.4406 21.2898C29.8056 21.4516 30.1089 21.7266 30.3055 22.0742C30.5021 22.4217 30.5816 22.8233 30.5323 23.2196V23.2156ZM28.9531 23.019C28.9576 22.9635 28.9445 22.9079 28.9156 22.8603C28.8868 22.8126 28.8437 22.7752 28.7924 22.7534L22.517 19.9417C22.4828 19.9285 22.446 19.9229 22.4093 19.9251C22.3727 19.9274 22.3369 19.9376 22.3045 19.955L19.0267 22.7441C19.0028 22.764 18.9776 22.7826 18.9524 22.7999C18.685 22.9782 18.376 23.0841 18.0555 23.1074C17.7349 23.1307 17.4139 23.0705 17.1235 22.9327C14.6851 21.7546 12.2546 19.3467 11.0766 16.9309C10.938 16.6423 10.8763 16.3227 10.8975 16.0033C10.9187 15.6838 11.022 15.3752 11.1974 15.1074C11.2145 15.0807 11.2336 15.0554 11.2545 15.0317L14.0516 11.7034C14.0676 11.6686 14.0758 11.6308 14.0758 11.5925C14.0758 11.5542 14.0676 11.5164 14.0516 11.4816L11.2545 5.22081C11.2361 5.17056 11.2029 5.12706 11.1593 5.09602C11.1157 5.06497 11.0637 5.04782 11.0102 5.04682H10.9796C9.62884 5.22651 8.38964 5.8917 7.49342 6.91819C6.5972 7.94468 6.10523 9.26228 6.10939 10.6249C6.10939 20.1449 13.855 27.8906 23.375 27.8906C24.7379 27.8947 26.0557 27.4025 27.0822 26.506C28.1087 25.6096 28.7738 24.37 28.9531 23.019Z" fill="white"/>
</svg>
