<svg width="1600" height="708" viewBox="0 0 1600 708" fill="none" xmlns="http://www.w3.org/2000/svg">
<path d="M66.6896 67.0926C168.066 73.33 268.463 103.467 369.575 93.8592C481.996 83.1758 585.344 24.1785 697.617 12.0517C878.861 -7.51735 1056.12 96.9134 1237.55 79.2387C1305.84 72.589 1371.09 48.8574 1436.8 29.1207C1502.51 9.38411 1571.33 -6.61526 1639.3 2.76012C1707.26 12.1419 1774.72 51.6603 1800.24 115.342C1826.24 180.216 1804.79 253.357 1783.23 319.835C1751.13 418.827 1715.75 522.91 1637.22 591.193C1583.39 638.005 1514.09 663.238 1444.66 679.669C1172.67 744.027 887.734 686.441 617.105 616.574C346.475 546.706 72.9012 463.797 -206.24 477.902C-238.806 479.545 -277.667 479.667 -296.128 452.785C-313.886 426.927 -301.579 391.919 -288.84 363.252C-252.995 282.572 -226.318 176.44 -153.19 120.871C-87.2341 70.7461 -11.5739 71.0941 66.6831 67.0862L66.6896 67.0926Z" fill="#003564" fill-opacity="0.8"/>
<path d="M66.2686 55.7647C126.219 60.81 183.219 80.624 241.372 94.7096C299.525 108.795 362.782 117.011 418.654 99.0654C488.54 76.6225 537.234 16.3237 610.813 4.35157C742.842 -17.1377 851.402 126.328 985.86 118.802C1069.66 114.111 1135.87 50.8805 1219.74 46.879C1335.82 41.344 1434.07 150.208 1548.95 136.18C1594.33 130.639 1638.02 105.825 1682.64 116.141C1714.15 123.429 1737.67 147.457 1749.24 173.546C1760.81 199.636 1762.35 227.898 1763.76 255.592C1768.48 348.212 1769.87 449.911 1701.58 520.687C1624.27 600.812 1486.92 612.011 1364.15 615.272C980.396 625.459 595.432 615.89 212.041 586.649C125.826 580.071 34.3537 570.727 -34.1864 524.611C-101.895 479.055 -135.125 404.097 -140.847 331.356C-146.04 265.277 -139.77 176.904 -108.088 115.806C-81.379 64.3024 7.29073 50.8032 66.2621 55.7647H66.2686Z" fill="#003564" fill-opacity="0.5"/>
<path d="M259.866 54.064C337.42 62.3568 410.426 92.9637 488.644 94.3104C616.175 96.5012 736.56 20.6992 861.848 40.0686C949.558 53.6258 1024.37 112.681 1113.5 108.235C1190.28 104.407 1255.99 53.3487 1332.88 55.2818C1383.72 56.5641 1428.5 80.8176 1472.68 101.173C1516.87 121.528 1569.18 139.08 1617.4 126C1677.56 109.678 1717.8 49.0638 1780.96 54.0446C1837.61 58.51 1863.94 111.908 1878.17 156.439C1900.68 226.867 1922.51 304.287 1883.68 369.914C1836.42 449.801 1718.27 481.858 1611.27 500.944C1337.12 549.838 1055.9 566.095 775.872 582.216C616.916 591.366 457.76 600.523 298.398 599.601C210.27 599.092 116.245 593.873 45.6047 551.294C-23.2833 509.772 -57.2537 438.757 -62.9434 369.463C-67.0672 319.223 -56.9508 270.355 -46.3061 221.094C-40.3845 193.696 -39.2117 162.271 -20.7703 137.946C31.1712 69.4319 168.876 44.3342 259.859 54.0704L259.866 54.064Z" fill="#003564" fill-opacity="0.57"/>
</svg>
