<svg width="1600" height="347" viewBox="0 0 1600 347" fill="none" xmlns="http://www.w3.org/2000/svg">
<g style="mix-blend-mode:multiply">
<path fill-rule="evenodd" clip-rule="evenodd" d="M180.817 80.8966C142.853 75.1719 104.841 69.4399 66.6898 67.0926L66.6833 67.0862C60.6772 67.3938 54.6865 67.6757 48.7142 67.9568C-23.1301 71.338 -92.2959 74.5931 -153.19 120.871C-209.932 163.989 -238.708 237.549 -265.5 306.04C-270.962 320.004 -276.342 333.758 -281.86 347H1774.34C1777.35 337.923 1780.31 328.858 1783.23 319.835C1804.79 253.357 1826.24 180.216 1800.24 115.342C1774.72 51.6603 1707.26 12.1419 1639.3 2.76012C1571.33 -6.61526 1502.51 9.38411 1436.8 29.1207C1424.53 32.806 1412.28 36.6305 1400.02 40.4571C1346.62 57.1242 1293.09 73.8307 1237.55 79.2387C1147.51 88.0102 1058.5 66.7086 969.517 45.4144C879.2 23.8005 788.914 2.19429 697.617 12.0517C642.309 18.0256 589.168 35.3738 536.04 52.7172C481.32 70.5804 426.616 88.4386 369.576 93.8592C306.515 99.851 243.732 90.3838 180.817 80.8966Z" fill="#39B3D0"/>
</g>
<g style="mix-blend-mode:multiply">
<path fill-rule="evenodd" clip-rule="evenodd" d="M192.783 82.0014C151.12 70.7001 109.46 59.3996 66.2686 55.7647H66.2621C7.29073 50.8032 -81.379 64.3024 -108.088 115.806C-139.77 176.904 -146.04 265.277 -140.847 331.356C-140.437 336.563 -139.886 341.782 -139.192 347H1765.05C1766.47 316.484 1765.29 285.563 1763.76 255.592C1762.35 227.898 1760.81 199.636 1749.24 173.546C1737.67 147.457 1714.15 123.429 1682.64 116.141C1654 109.519 1625.74 117.372 1597.17 125.311C1581.24 129.74 1565.2 134.196 1548.95 136.18C1489.71 143.414 1434.89 117.97 1379.77 92.3847C1328 68.3537 1275.96 44.1982 1219.74 46.879C1177.58 48.8905 1139.88 65.8689 1102.17 82.8544C1064.86 99.6583 1027.54 116.469 985.86 118.802C921.119 122.426 862.381 91.0432 804.137 59.9242C741.417 26.414 679.27 -6.79061 610.813 4.35155C569.946 11.0011 536.756 32.5588 503.348 54.2582C476.606 71.6275 449.724 89.0877 418.654 99.0654C362.782 117.011 299.525 108.795 241.372 94.7096C225.115 90.7719 208.949 86.3866 192.783 82.0014Z" fill="#39B3D0"/>
</g>
<g style="mix-blend-mode:multiply">
<path fill-rule="evenodd" clip-rule="evenodd" d="M359.091 73.2594C326.341 65.4686 293.532 57.6639 259.866 54.064L259.859 54.0704C168.876 44.3342 31.1712 69.4319 -20.7703 137.946C-35.0196 156.741 -38.959 179.776 -42.7454 201.916C-43.8593 208.43 -44.96 214.866 -46.3061 221.094C-55.3583 262.985 -64.0284 304.592 -63.884 347H1894.7C1917.52 286.698 1898.11 218.825 1878.17 156.439C1863.94 111.908 1837.61 58.51 1780.96 54.0446C1744.07 51.1353 1715 70.6053 1685.21 90.5562C1664 104.762 1642.42 119.212 1617.4 126C1569.18 139.08 1516.87 121.528 1472.68 101.173C1467.26 98.6724 1461.82 96.1132 1456.37 93.545C1417.41 75.2057 1377.47 56.4066 1332.88 55.2818C1292.38 54.2635 1254.98 67.9494 1217.43 81.6902C1183.69 94.0348 1149.84 106.424 1113.5 108.235C1062.03 110.802 1015.33 92.1936 968.171 73.3991C933.664 59.6477 898.908 45.7968 861.848 40.0686C793.315 29.4735 726.249 47.3549 658.678 65.3709C602.72 80.2907 546.415 95.3029 488.644 94.3104C444.38 93.5483 401.785 83.4157 359.091 73.2594Z" fill="#39B3D0"/>
</g>
</svg>
